<svg xmlns="http://www.w3.org/2000/svg" xmlns:xlink="http://www.w3.org/1999/xlink" id="processonSvg1000" viewBox="72.0 78.0 742.0 450.0" width="742.0" height="450.0"><defs id="ProcessOnDefs1001"><marker id="ProcessOnMarker1026" markerUnits="userSpaceOnUse" orient="auto" markerWidth="16.23606797749979" markerHeight="10.550836550532098" viewBox="-1.0 -1.3763819204711736 16.23606797749979 10.550836550532098" refX="-1.0" refY="3.8990363547948754"><path id="ProcessOnPath1027" d="M12.0 3.8990363547948754L0.0 7.798072709589751V0.0Z" stroke="#323232" stroke-width="2.0" fill="#323232" transform="matrix(1.0,0.0,0.0,1.0,0.0,0.0)"/></marker><marker id="ProcessOnMarker1030" markerUnits="userSpaceOnUse" orient="auto" markerWidth="16.23606797749979" markerHeight="10.550836550532098" viewBox="-1.0 -1.3763819204711736 16.23606797749979 10.550836550532098" refX="-1.0" refY="3.8990363547948754"><path id="ProcessOnPath1031" d="M12.0 3.8990363547948754L0.0 7.798072709589751V0.0Z" stroke="#323232" stroke-width="2.0" fill="#323232" transform="matrix(1.0,0.0,0.0,1.0,0.0,0.0)"/></marker><marker id="ProcessOnMarker1048" markerUnits="userSpaceOnUse" orient="auto" markerWidth="16.23606797749979" markerHeight="10.550836550532098" viewBox="-1.0 -1.3763819204711736 16.23606797749979 10.550836550532098" refX="-1.0" refY="3.8990363547948754"><path id="ProcessOnPath1049" d="M12.0 3.8990363547948754L0.0 7.798072709589751V0.0Z" stroke="#323232" stroke-width="2.0" fill="#323232" transform="matrix(1.0,0.0,0.0,1.0,0.0,0.0)"/></marker><marker id="ProcessOnMarker1052" markerUnits="userSpaceOnUse" orient="auto" markerWidth="16.23606797749979" markerHeight="10.550836550532098" viewBox="-1.0 -1.3763819204711736 16.23606797749979 10.550836550532098" refX="-1.0" refY="3.8990363547948754"><path id="ProcessOnPath1053" d="M12.0 3.8990363547948754L0.0 7.798072709589751V0.0Z" stroke="#323232" stroke-width="2.0" fill="#323232" transform="matrix(1.0,0.0,0.0,1.0,0.0,0.0)"/></marker><marker id="ProcessOnMarker1070" markerUnits="userSpaceOnUse" orient="auto" markerWidth="16.23606797749979" markerHeight="10.550836550532098" viewBox="-1.0 -1.3763819204711736 16.23606797749979 10.550836550532098" refX="-1.0" refY="3.8990363547948754"><path id="ProcessOnPath1071" d="M12.0 3.8990363547948754L0.0 7.798072709589751V0.0Z" stroke="#323232" stroke-width="2.0" fill="#323232" transform="matrix(1.0,0.0,0.0,1.0,0.0,0.0)"/></marker><marker id="ProcessOnMarker1074" markerUnits="userSpaceOnUse" orient="auto" markerWidth="16.23606797749979" markerHeight="10.550836550532098" viewBox="-1.0 -1.3763819204711736 16.23606797749979 10.550836550532098" refX="-1.0" refY="3.8990363547948754"><path id="ProcessOnPath1075" d="M12.0 3.8990363547948754L0.0 7.798072709589751V0.0Z" stroke="#323232" stroke-width="2.0" fill="#323232" transform="matrix(1.0,0.0,0.0,1.0,0.0,0.0)"/></marker></defs><g id="ProcessOnG1002"><path id="ProcessOnPath1003" d="M72.0 78.0H814.0V528.0H72.0V78.0Z" fill="none"/><g id="ProcessOnG1004"><g id="ProcessOnG1005" transform="matrix(1.0,0.0,0.0,1.0,92.0,98.0)" opacity="1.0"><path id="ProcessOnPath1006" d="M0.0 0.0L167.0 0.0L167.0 410.0L0.0 410.0Z" stroke="#cc6600" stroke-width="2.0" stroke-dasharray="none" opacity="1.0" fill="none"/><path id="ProcessOnPath1007" d="M0.0 0.0L167.0 0.0L167.0 40.0L0.0 40.0Z" stroke="#cc6600" stroke-width="2.0" stroke-dasharray="none" opacity="1.0" fill="#ffffff"/><g id="ProcessOnG1008" transform="matrix(1.0,0.0,0.0,1.0,10.0,10.0)"><text id="ProcessOnText1009" fill="#000000" font-size="16" x="72.5" y="16.4" font-family="微软雅黑" font-weight="normal" font-style="normal" text-decoration="none" family="微软雅黑" text-anchor="middle" size="16">Main thread</text></g></g><g id="ProcessOnG1010" transform="matrix(1.0,0.0,0.0,1.0,129.0,176.5)" opacity="1.0"><path id="ProcessOnPath1011" d="M0.0 4.0Q0.0 0.0 4.0 0.0L103.0 0.0Q107.0 0.0 107.0 4.0L107.0 37.0Q107.0 41.0 103.0 41.0L4.0 41.0Q0.0 41.0 0.0 37.0Z" stroke="#323232" stroke-width="2.0" stroke-dasharray="none" opacity="1.0" fill="#ccff99"/><g id="ProcessOnG1012" transform="matrix(1.0,0.0,0.0,1.0,10.0,12.375)"><text id="ProcessOnText1013" fill="#000000" font-size="13" x="42.5" y="13.325" font-family="微软雅黑" font-weight="normal" font-style="normal" text-decoration="none" family="微软雅黑" text-anchor="middle" size="13">Module A</text></g></g><g id="ProcessOnG1014" transform="matrix(1.0,0.0,0.0,1.0,448.0,178.75)" opacity="1.0"><path id="ProcessOnPath1015" d="M0.0 0.0L314.0 0.0L314.0 36.5L0.0 36.5Z" stroke="#323232" stroke-width="2.0" stroke-dasharray="none" opacity="1.0" fill="none"/><path id="ProcessOnPath1016" d="M0.0 0.0L30.0 0.0L30.0 36.5L0.0 36.5Z" stroke="#323232" stroke-width="2.0" stroke-dasharray="none" opacity="1.0" fill="#ffffff"/></g><g id="ProcessOnG1017" transform="matrix(1.0,0.0,0.0,1.0,408.0,178.75)" opacity="1.0"><path id="ProcessOnPath1018" d="M0.0 0.0L354.0 0.0L354.0 36.5L0.0 36.5Z" stroke="#323232" stroke-width="2.0" stroke-dasharray="none" opacity="1.0" fill="none"/><path id="ProcessOnPath1019" d="M0.0 0.0L40.0 0.0L40.0 36.5L0.0 36.5Z" stroke="#323232" stroke-width="2.0" stroke-dasharray="none" opacity="1.0" fill="#ccff99"/></g><g id="ProcessOnG1020" transform="matrix(1.0,0.0,0.0,1.0,534.0,177.0)" opacity="1.0"><path id="ProcessOnPath1021" d="M0.0 0.0L160.0 0.0L160.0 40.0L0.0 40.0Z" stroke="none" stroke-width="0.0" stroke-dasharray="none" opacity="1.0" fill="none"/><g id="ProcessOnG1022" transform="matrix(1.0,0.0,0.0,1.0,0.0,11.875)"><text id="ProcessOnText1023" fill="#000000" font-size="13" x="79.0" y="13.325" font-family="微软雅黑" font-weight="normal" font-style="normal" text-decoration="none" family="微软雅黑" text-anchor="middle" size="13">Module A work thread</text></g></g><g id="ProcessOnG1024"><path id="ProcessOnPath1025" d="M236.0 197.0L322.0 197.0L322.0 197.0L392.7639320225002 197.0" stroke="#323232" stroke-width="2.0" stroke-dasharray="none" fill="none" marker-end="url(#ProcessOnMarker1026)"/></g><g id="ProcessOnG1028"><path id="ProcessOnPath1029" d="M762.0 198.0L794.0 198.0L794.0 247.5L182.5 247.5L182.5 232.7360679774998" stroke="#323232" stroke-width="2.0" stroke-dasharray="none" fill="none" marker-end="url(#ProcessOnMarker1030)"/></g><g id="ProcessOnG1032" transform="matrix(1.0,0.0,0.0,1.0,129.0,296.5)" opacity="1.0"><path id="ProcessOnPath1033" d="M0.0 4.0Q0.0 0.0 4.0 0.0L103.0 0.0Q107.0 0.0 107.0 4.0L107.0 37.0Q107.0 41.0 103.0 41.0L4.0 41.0Q0.0 41.0 0.0 37.0Z" stroke="#323232" stroke-width="2.0" stroke-dasharray="none" opacity="1.0" fill="#66ffb3"/><g id="ProcessOnG1034" transform="matrix(1.0,0.0,0.0,1.0,10.0,12.375)"><text id="ProcessOnText1035" fill="#000000" font-size="13" x="42.5" y="13.325" font-family="微软雅黑" font-weight="normal" font-style="normal" text-decoration="none" family="微软雅黑" text-anchor="middle" size="13">Module B</text></g></g><g id="ProcessOnG1036" transform="matrix(1.0,0.0,0.0,1.0,408.0,298.75)" opacity="1.0"><path id="ProcessOnPath1037" d="M0.0 0.0L354.0 0.0L354.0 36.5L0.0 36.5Z" stroke="#323232" stroke-width="2.0" stroke-dasharray="none" opacity="1.0" fill="none"/><path id="ProcessOnPath1038" d="M0.0 0.0L40.0 0.0L40.0 36.5L0.0 36.5Z" stroke="#323232" stroke-width="2.0" stroke-dasharray="none" opacity="1.0" fill="#66ffb3"/></g><g id="ProcessOnG1039" transform="matrix(1.0,0.0,0.0,1.0,448.0,298.75)" opacity="1.0"><path id="ProcessOnPath1040" d="M0.0 0.0L314.0 0.0L314.0 36.5L0.0 36.5Z" stroke="#323232" stroke-width="2.0" stroke-dasharray="none" opacity="1.0" fill="none"/><path id="ProcessOnPath1041" d="M0.0 0.0L30.0 0.0L30.0 36.5L0.0 36.5Z" stroke="#323232" stroke-width="2.0" stroke-dasharray="none" opacity="1.0" fill="#ffffff"/></g><g id="ProcessOnG1042" transform="matrix(1.0,0.0,0.0,1.0,534.0,297.0)" opacity="1.0"><path id="ProcessOnPath1043" d="M0.0 0.0L160.0 0.0L160.0 40.0L0.0 40.0Z" stroke="none" stroke-width="0.0" stroke-dasharray="none" opacity="1.0" fill="none"/><g id="ProcessOnG1044" transform="matrix(1.0,0.0,0.0,1.0,0.0,11.875)"><text id="ProcessOnText1045" fill="#000000" font-size="13" x="79.0" y="13.325" font-family="微软雅黑" font-weight="normal" font-style="normal" text-decoration="none" family="微软雅黑" text-anchor="middle" size="13">Module B work thread</text></g></g><g id="ProcessOnG1046"><path id="ProcessOnPath1047" d="M236.0 317.0L322.0 317.0L322.0 317.0L392.7639320225002 317.0" stroke="#323232" stroke-width="2.0" stroke-dasharray="none" fill="none" marker-end="url(#ProcessOnMarker1048)"/></g><g id="ProcessOnG1050"><path id="ProcessOnPath1051" d="M762.0 318.0L794.0 318.0L794.0 367.5L182.5 367.5L182.5 352.7360679774998" stroke="#323232" stroke-width="2.0" stroke-dasharray="none" fill="none" marker-end="url(#ProcessOnMarker1052)"/></g><g id="ProcessOnG1054" transform="matrix(1.0,0.0,0.0,1.0,129.0,406.5)" opacity="1.0"><path id="ProcessOnPath1055" d="M0.0 4.0Q0.0 0.0 4.0 0.0L103.0 0.0Q107.0 0.0 107.0 4.0L107.0 37.0Q107.0 41.0 103.0 41.0L4.0 41.0Q0.0 41.0 0.0 37.0Z" stroke="#323232" stroke-width="2.0" stroke-dasharray="none" opacity="1.0" fill="#b266ff"/><g id="ProcessOnG1056" transform="matrix(1.0,0.0,0.0,1.0,10.0,12.375)"><text id="ProcessOnText1057" fill="#000000" font-size="13" x="42.5" y="13.325" font-family="微软雅黑" font-weight="normal" font-style="normal" text-decoration="none" family="微软雅黑" text-anchor="middle" size="13">Module C</text></g></g><g id="ProcessOnG1058" transform="matrix(1.0,0.0,0.0,1.0,408.0,408.75)" opacity="1.0"><path id="ProcessOnPath1059" d="M0.0 0.0L354.0 0.0L354.0 36.5L0.0 36.5Z" stroke="#323232" stroke-width="2.0" stroke-dasharray="none" opacity="1.0" fill="none"/><path id="ProcessOnPath1060" d="M0.0 0.0L40.0 0.0L40.0 36.5L0.0 36.5Z" stroke="#323232" stroke-width="2.0" stroke-dasharray="none" opacity="1.0" fill="#9933ff"/></g><g id="ProcessOnG1061" transform="matrix(1.0,0.0,0.0,1.0,448.0,408.75)" opacity="1.0"><path id="ProcessOnPath1062" d="M0.0 0.0L314.0 0.0L314.0 36.5L0.0 36.5Z" stroke="#323232" stroke-width="2.0" stroke-dasharray="none" opacity="1.0" fill="none"/><path id="ProcessOnPath1063" d="M0.0 0.0L30.0 0.0L30.0 36.5L0.0 36.5Z" stroke="#323232" stroke-width="2.0" stroke-dasharray="none" opacity="1.0" fill="#ffffff"/></g><g id="ProcessOnG1064" transform="matrix(1.0,0.0,0.0,1.0,534.0,407.0)" opacity="1.0"><path id="ProcessOnPath1065" d="M0.0 0.0L160.0 0.0L160.0 40.0L0.0 40.0Z" stroke="none" stroke-width="0.0" stroke-dasharray="none" opacity="1.0" fill="none"/><g id="ProcessOnG1066" transform="matrix(1.0,0.0,0.0,1.0,0.0,11.875)"><text id="ProcessOnText1067" fill="#000000" font-size="13" x="79.0" y="13.325" font-family="微软雅黑" font-weight="normal" font-style="normal" text-decoration="none" family="微软雅黑" text-anchor="middle" size="13">Module C work thread</text></g></g><g id="ProcessOnG1068"><path id="ProcessOnPath1069" d="M236.0 427.0L322.0 427.0L322.0 427.0L392.7639320225002 427.0" stroke="#323232" stroke-width="2.0" stroke-dasharray="none" fill="none" marker-end="url(#ProcessOnMarker1070)"/></g><g id="ProcessOnG1072"><path id="ProcessOnPath1073" d="M762.0 428.0L794.0 428.0L794.0 477.5L182.5 477.5L182.5 462.7360679774998" stroke="#323232" stroke-width="2.0" stroke-dasharray="none" fill="none" marker-end="url(#ProcessOnMarker1074)"/></g></g></g></svg>