<svg xmlns="http://www.w3.org/2000/svg" xmlns:xlink="http://www.w3.org/1999/xlink" id="processonSvg1000" viewBox="247.0 86.0 630.0 528.0" width="630.0" height="528.0"><defs id="ProcessOnDefs1001"><marker id="ProcessOnMarker1037" markerUnits="userSpaceOnUse" orient="auto" markerWidth="16.23606797749979" markerHeight="10.550836550532098" viewBox="-1.0 -1.3763819204711736 16.23606797749979 10.550836550532098" refX="-1.0" refY="3.8990363547948754"><path id="ProcessOnPath1038" d="M12.0 3.8990363547948754L0.0 7.798072709589751V0.0Z" stroke="#323232" stroke-width="2.0" fill="#323232" transform="matrix(1.0,0.0,0.0,1.0,0.0,0.0)"/></marker><marker id="ProcessOnMarker1041" markerUnits="userSpaceOnUse" orient="auto" markerWidth="16.23606797749979" markerHeight="10.550836550532098" viewBox="-1.0 -1.3763819204711736 16.23606797749979 10.550836550532098" refX="-1.0" refY="3.8990363547948754"><path id="ProcessOnPath1042" d="M12.0 3.8990363547948754L0.0 7.798072709589751V0.0Z" stroke="#323232" stroke-width="2.0" fill="#323232" transform="matrix(1.0,0.0,0.0,1.0,0.0,0.0)"/></marker><marker id="ProcessOnMarker1045" markerUnits="userSpaceOnUse" orient="auto" markerWidth="16.23606797749979" markerHeight="10.550836550532098" viewBox="-1.0 -1.3763819204711736 16.23606797749979 10.550836550532098" refX="-1.0" refY="3.8990363547948754"><path id="ProcessOnPath1046" d="M12.0 3.8990363547948754L0.0 7.798072709589751V0.0Z" stroke="#323232" stroke-width="2.0" fill="#323232" transform="matrix(1.0,0.0,0.0,1.0,0.0,0.0)"/></marker><marker id="ProcessOnMarker1049" markerUnits="userSpaceOnUse" orient="auto" markerWidth="16.23606797749979" markerHeight="10.550836550532098" viewBox="-1.0 -1.3763819204711736 16.23606797749979 10.550836550532098" refX="-1.0" refY="3.8990363547948754"><path id="ProcessOnPath1050" d="M12.0 3.8990363547948754L0.0 7.798072709589751V0.0Z" stroke="#323232" stroke-width="2.0" fill="#323232" transform="matrix(1.0,0.0,0.0,1.0,0.0,0.0)"/></marker></defs><g id="ProcessOnG1002"><path id="ProcessOnPath1003" d="M247.0 86.0H877.0V614.0H247.0V86.0Z" fill="none"/><g id="ProcessOnG1004"><g id="ProcessOnG1005" transform="matrix(1.0,0.0,0.0,1.0,306.0,146.0)" opacity="1.0"><path id="ProcessOnPath1006" d="M27.060000000000002 0.0L54.940000000000005 0.0L54.940000000000005 407.0L82.0 407.0L41.0 448.0L0.0 407.0L27.060000000000002 407.0L27.060000000000002 0.0Z" stroke="#323232" stroke-width="2.0" stroke-dasharray="none" opacity="1.0" fill="#b3ff66"/></g><g id="ProcessOnG1007" transform="matrix(1.0,0.0,0.0,1.0,270.0,441.0)" opacity="1.0"><path id="ProcessOnPath1008" d="M0.0 4.0Q0.0 0.0 4.0 0.0L150.0 0.0Q154.0 0.0 154.0 4.0L154.0 43.0Q154.0 47.0 150.0 47.0L4.0 47.0Q0.0 47.0 0.0 43.0Z" stroke="#323232" stroke-width="2.0" stroke-dasharray="none" opacity="1.0" fill="#ffffff"/><g id="ProcessOnG1009" transform="matrix(1.0,0.0,0.0,1.0,10.0,15.375)"><text id="ProcessOnText1010" fill="#000000" font-size="13" x="66.0" y="13.325" font-family="微软雅黑" font-weight="bold" font-style="normal" text-decoration="none" family="微软雅黑" text-anchor="middle" size="13">A:OnPostExecute</text></g></g><g id="ProcessOnG1011" transform="matrix(1.0,0.0,0.0,1.0,270.0,194.0)" opacity="1.0"><path id="ProcessOnPath1012" d="M0.0 4.0Q0.0 0.0 4.0 0.0L150.0 0.0Q154.0 0.0 154.0 4.0L154.0 43.0Q154.0 47.0 150.0 47.0L4.0 47.0Q0.0 47.0 0.0 43.0Z" stroke="#323232" stroke-width="2.0" stroke-dasharray="none" opacity="1.0" fill="#ffffff"/><g id="ProcessOnG1013" transform="matrix(1.0,0.0,0.0,1.0,10.0,15.375)"><text id="ProcessOnText1014" fill="#000000" font-size="13" x="66.0" y="13.325" font-family="微软雅黑" font-weight="bold" font-style="normal" text-decoration="none" family="微软雅黑" text-anchor="middle" size="13">AddTask:A</text></g></g><g id="ProcessOnG1015" transform="matrix(1.0,0.0,0.0,1.0,736.0,146.0)" opacity="1.0"><path id="ProcessOnPath1016" d="M27.060000000000002 0.0L54.940000000000005 0.0L54.940000000000005 407.0L82.0 407.0L41.0 448.0L0.0 407.0L27.060000000000002 407.0L27.060000000000002 0.0Z" stroke="#323232" stroke-width="2.0" stroke-dasharray="none" opacity="1.0" fill="#66ffb3"/></g><g id="ProcessOnG1017" transform="matrix(1.0,0.0,0.0,1.0,700.0,441.0)" opacity="1.0"><path id="ProcessOnPath1018" d="M0.0 4.0Q0.0 0.0 4.0 0.0L150.0 0.0Q154.0 0.0 154.0 4.0L154.0 43.0Q154.0 47.0 150.0 47.0L4.0 47.0Q0.0 47.0 0.0 43.0Z" stroke="#323232" stroke-width="2.0" stroke-dasharray="none" opacity="1.0" fill="#ffffff"/><g id="ProcessOnG1019" transform="matrix(1.0,0.0,0.0,1.0,10.0,15.375)"><text id="ProcessOnText1020" fill="#000000" font-size="13" x="66.0" y="13.325" font-family="微软雅黑" font-weight="bold" font-style="normal" text-decoration="none" family="微软雅黑" text-anchor="middle" size="13">B:OnPostExecute</text></g></g><g id="ProcessOnG1021" transform="matrix(1.0,0.0,0.0,1.0,700.0,194.0)" opacity="1.0"><path id="ProcessOnPath1022" d="M0.0 4.0Q0.0 0.0 4.0 0.0L150.0 0.0Q154.0 0.0 154.0 4.0L154.0 43.0Q154.0 47.0 150.0 47.0L4.0 47.0Q0.0 47.0 0.0 43.0Z" stroke="#323232" stroke-width="2.0" stroke-dasharray="none" opacity="1.0" fill="#ffffff"/><g id="ProcessOnG1023" transform="matrix(1.0,0.0,0.0,1.0,10.0,15.375)"><text id="ProcessOnText1024" fill="#000000" font-size="13" x="66.0" y="13.325" font-family="微软雅黑" font-weight="bold" font-style="normal" text-decoration="none" family="微软雅黑" text-anchor="middle" size="13">AddTask B</text></g></g><g id="ProcessOnG1025" transform="matrix(1.0,0.0,0.0,1.0,530.0,146.0)" opacity="1.0"><path id="ProcessOnPath1026" d="M27.060000000000002 0.0L54.940000000000005 0.0L54.940000000000005 407.0L82.0 407.0L41.0 448.0L0.0 407.0L27.060000000000002 407.0L27.060000000000002 0.0Z" stroke="#323232" stroke-width="2.0" stroke-dasharray="none" opacity="1.0" fill="#ffb366"/></g><g id="ProcessOnG1027" transform="matrix(1.0,0.0,0.0,1.0,494.0,179.0)" opacity="1.0"><path id="ProcessOnPath1028" d="M0.0 4.0Q0.0 0.0 4.0 0.0L150.0 0.0Q154.0 0.0 154.0 4.0L154.0 43.0Q154.0 47.0 150.0 47.0L4.0 47.0Q0.0 47.0 0.0 43.0Z" stroke="#323232" stroke-width="2.0" stroke-dasharray="none" opacity="1.0" fill="#ffffff"/><g id="ProcessOnG1029" transform="matrix(1.0,0.0,0.0,1.0,10.0,15.375)"><text id="ProcessOnText1030" fill="#000000" font-size="13" x="66.0" y="13.325" font-family="微软雅黑" font-weight="bold" font-style="normal" text-decoration="none" family="微软雅黑" text-anchor="middle" size="13">A:DoInBackground</text></g></g><g id="ProcessOnG1031" transform="matrix(1.0,0.0,0.0,1.0,494.0,350.0)" opacity="1.0"><path id="ProcessOnPath1032" d="M0.0 4.0Q0.0 0.0 4.0 0.0L150.0 0.0Q154.0 0.0 154.0 4.0L154.0 43.0Q154.0 47.0 150.0 47.0L4.0 47.0Q0.0 47.0 0.0 43.0Z" stroke="#323232" stroke-width="2.0" stroke-dasharray="none" opacity="1.0" fill="#ffffff"/><g id="ProcessOnG1033" transform="matrix(1.0,0.0,0.0,1.0,10.0,15.375)"><text id="ProcessOnText1034" fill="#000000" font-size="13" x="66.0" y="13.325" font-family="微软雅黑" font-weight="bold" font-style="normal" text-decoration="none" family="微软雅黑" text-anchor="middle" size="13">B:DoInBackground</text></g></g><g id="ProcessOnG1035"><path id="ProcessOnPath1036" d="M571.0 226.0L571.0 333.5L347.0 333.5L347.0 425.7639320225002" stroke="#323232" stroke-width="2.0" stroke-dasharray="none" fill="none" marker-end="url(#ProcessOnMarker1037)"/></g><g id="ProcessOnG1039"><path id="ProcessOnPath1040" d="M347.0 241.0L347.0 271.0L464.0 271.0L464.0 202.5L478.7639320225002 202.5" stroke="#323232" stroke-width="2.0" stroke-dasharray="none" fill="none" marker-end="url(#ProcessOnMarker1041)"/></g><g id="ProcessOnG1043"><path id="ProcessOnPath1044" d="M700.0 217.5L674.0 217.5L674.0 373.5L663.2360679774998 373.5" stroke="#323232" stroke-width="2.0" stroke-dasharray="none" fill="none" marker-end="url(#ProcessOnMarker1045)"/></g><g id="ProcessOnG1047"><path id="ProcessOnPath1048" d="M571.0 397.0L571.0 419.0L777.0 419.0L777.0 425.7639320225002" stroke="#323232" stroke-width="2.0" stroke-dasharray="none" fill="none" marker-end="url(#ProcessOnMarker1049)"/></g><g id="ProcessOnG1051" transform="matrix(1.0,0.0,0.0,1.0,267.0,106.0)" opacity="1.0"><path id="ProcessOnPath1052" d="M0.0 0.0L160.0 0.0L160.0 40.0L0.0 40.0Z" stroke="none" stroke-width="0.0" stroke-dasharray="none" opacity="1.0" fill="none"/><g id="ProcessOnG1053" transform="matrix(1.0,0.0,0.0,1.0,0.0,11.875)"><text id="ProcessOnText1054" fill="#000000" font-size="13" x="79.0" y="13.325" font-family="微软雅黑" font-weight="bold" font-style="normal" text-decoration="none" family="微软雅黑" text-anchor="middle" size="13">Main Thread</text></g></g><g id="ProcessOnG1055" transform="matrix(1.0,0.0,0.0,1.0,491.0,106.0)" opacity="1.0"><path id="ProcessOnPath1056" d="M0.0 0.0L160.0 0.0L160.0 40.0L0.0 40.0Z" stroke="none" stroke-width="0.0" stroke-dasharray="none" opacity="1.0" fill="none"/><g id="ProcessOnG1057" transform="matrix(1.0,0.0,0.0,1.0,0.0,11.875)"><text id="ProcessOnText1058" fill="#000000" font-size="13" x="79.0" y="13.325" font-family="微软雅黑" font-weight="bold" font-style="normal" text-decoration="none" family="微软雅黑" text-anchor="middle" size="13">AsyncSyestem Theads</text></g></g><g id="ProcessOnG1059" transform="matrix(1.0,0.0,0.0,1.0,697.0,106.0)" opacity="1.0"><path id="ProcessOnPath1060" d="M0.0 0.0L160.0 0.0L160.0 40.0L0.0 40.0Z" stroke="none" stroke-width="0.0" stroke-dasharray="none" opacity="1.0" fill="none"/><g id="ProcessOnG1061" transform="matrix(1.0,0.0,0.0,1.0,0.0,11.875)"><text id="ProcessOnText1062" fill="#000000" font-size="13" x="79.0" y="13.325" font-family="微软雅黑" font-weight="bold" font-style="normal" text-decoration="none" family="微软雅黑" text-anchor="middle" size="13">Work Thread</text></g></g></g></g></svg>