<svg id="SvgjsSvg1006" width="300" height="300" xmlns="http://www.w3.org/2000/svg" version="1.1" xmlns:xlink="http://www.w3.org/1999/xlink" xmlns:svgjs="http://svgjs.com/svgjs"><defs id="SvgjsDefs1007"></defs><g id="SvgjsG1008" transform="translate(25,25)"><path id="SvgjsPath1009" d="M 0 0L 250 0L 250 250L 0 250Z" stroke="rgba(50,50,50,1)" stroke-width="2" fill-opacity="1" fill="#ffffff"></path><g id="SvgjsG1010"><text id="SvgjsText1011" font-family="微软雅黑" text-anchor="middle" font-size="13px" width="230px" fill="#323232" font-weight="400" align="middle" anchor="middle" family="微软雅黑" size="13px" weight="400" font-style="" opacity="1" y="115.05" transform="rotate(0)"></text></g></g><g id="SvgjsG1012" transform="translate(43,45)"><path id="SvgjsPath1013" d="M 0 0L 214 0L 214 181L 0 181Z" stroke="rgba(50,50,50,1)" stroke-width="2" fill-opacity="1" fill="#ffffff"></path><g id="SvgjsG1014"><text id="SvgjsText1015" font-family="微软雅黑" text-anchor="middle" font-size="13px" width="194px" fill="#323232" font-weight="400" align="middle" anchor="middle" family="微软雅黑" size="13px" weight="400" font-style="" opacity="1" y="80.55" transform="rotate(0)"></text></g></g><g id="SvgjsG1016" transform="translate(74,232.5)"><path id="SvgjsPath1017" d="M 0 0L 152 0L 152 37.5L 0 37.5Z" stroke="none" fill="none"></path><g id="SvgjsG1018"><text id="SvgjsText1019" font-family="微软雅黑" text-anchor="middle" font-size="13px" width="152px" fill="#323232" font-weight="400" align="middle" anchor="middle" family="微软雅黑" size="13px" weight="400" font-style="" opacity="1" y="8.8" transform="rotate(0)"><tspan id="SvgjsTspan1020" dy="16" x="76"><tspan id="SvgjsTspan1021" style="text-decoration:;">int32_t _M_head_impl</tspan></tspan></text></g></g><g id="SvgjsG1022" transform="translate(58,66)"><path id="SvgjsPath1023" d="M 0 0L 184 0L 184 110L 0 110Z" stroke="rgba(50,50,50,1)" stroke-width="2" fill-opacity="1" fill="#ffffff"></path><g id="SvgjsG1024"><text id="SvgjsText1025" font-family="微软雅黑" text-anchor="middle" font-size="13px" width="164px" fill="#323232" font-weight="400" align="middle" anchor="middle" family="微软雅黑" size="13px" weight="400" font-style="" opacity="1" y="45.05" transform="rotate(0)"></text></g></g><g id="SvgjsG1026" transform="translate(77,84)"><path id="SvgjsPath1027" d="M 0 0L 146 0L 146 37L 0 37Z" stroke="rgba(50,50,50,1)" stroke-width="2" fill-opacity="1" fill="#ffffff"></path><g id="SvgjsG1028"><text id="SvgjsText1029" font-family="微软雅黑" text-anchor="middle" font-size="13px" width="126px" fill="#323232" font-weight="400" align="middle" anchor="middle" family="微软雅黑" size="13px" weight="400" font-style="" opacity="1" y="8.55" transform="rotate(0)"></text></g></g><g id="SvgjsG1030" transform="translate(87,130)"><path id="SvgjsPath1031" d="M 0 0L 155 0L 155 40L 0 40Z" stroke="none" fill="none"></path><g id="SvgjsG1032"><text id="SvgjsText1033" font-family="微软雅黑" text-anchor="middle" font-size="13px" width="155px" fill="#323232" font-weight="400" align="middle" anchor="middle" family="微软雅黑" size="13px" weight="400" font-style="" opacity="1" y="10.05" transform="rotate(0)"><tspan id="SvgjsTspan1034" dy="16" x="77.5"><tspan id="SvgjsTspan1035" style="text-decoration:;">uint32_t _M_head_impl</tspan></tspan></text></g></g><g id="SvgjsG1036" transform="translate(58,182)"><path id="SvgjsPath1037" d="M 0 0L 184 0L 184 37L 0 37Z" stroke="rgba(50,50,50,1)" stroke-width="2" fill-opacity="1" fill="#99ff99"></path><g id="SvgjsG1038"><text id="SvgjsText1039" font-family="微软雅黑" text-anchor="middle" font-size="13px" width="164px" fill="#323232" font-weight="400" align="middle" anchor="middle" family="微软雅黑" size="13px" weight="400" font-style="" opacity="1" y="8.55" transform="rotate(0)"></text></g></g><g id="SvgjsG1040" transform="translate(81.5,180.5)"><path id="SvgjsPath1041" d="M 0 0L 137 0L 137 40L 0 40Z" stroke="none" fill="none"></path><g id="SvgjsG1042"><text id="SvgjsText1043" font-family="微软雅黑" text-anchor="middle" font-size="13px" width="137px" fill="#323232" font-weight="400" align="middle" anchor="middle" family="微软雅黑" size="13px" weight="400" font-style="" opacity="1" y="10.05" transform="rotate(0)"><tspan id="SvgjsTspan1044" dy="16" x="68.5"><tspan id="SvgjsTspan1045" style="text-decoration:;">同时多重继承自:empty</tspan></tspan></text></g></g></svg>